<svg width="80" height="80" viewBox="0 0 80 80" fill="none" xmlns="http://www.w3.org/2000/svg">
<path d="M46.3823 47.3225C46.6041 45.8811 67.1717 30.6448 77.4278 23.2068C78.9524 23.2068 59.1331 46.7681 55.3911 50.7874C51.649 54.8067 50.8174 54.3909 50.4016 52.312C49.9858 50.233 46.1051 49.1243 46.3823 47.3225Z" stroke="black" stroke-width="2" stroke-linecap="round"/>
<path d="M51.9263 42.6101C53.4509 43.534 56.7495 45.9641 57.7474 48.2925" stroke="black" stroke-width="2" stroke-linecap="round"/>
<path d="M38.2049 52.589C42.5291 50.7041 45.7353 52.9124 46.7979 54.2522C48.461 55.2224 49.847 63.5381 42.5014 64.3697C35.1558 65.2013 32.7997 71.8539 31.9681 69.4977C31.1365 67.1416 32.7997 54.9452 38.2049 52.589Z" stroke="black" stroke-width="2" stroke-linecap="round"/>
<path d="M32.8 37.2049C22.5439 38.0365 28.6421 50.0943 28.6421 50.6487C31.2755 56.1926 27.672 57.1627 15.6141 52.1733C3.55624 47.1838 1.4773 34.8488 2.86326 22.9295C4.24922 11.0103 18.8018 1.86296 33.493 2.00155C48.1842 2.14015 54.2824 13.505 53.1736 25.4243C52.0649 37.3435 43.0561 36.3733 32.8 37.2049Z" stroke="#DF252A" stroke-width="2" stroke-linecap="round"/>
<path d="M42.6401 24.5629C44.6138 24.5629 46.2137 22.9629 46.2137 20.9892C46.2137 19.0155 44.6138 17.4155 42.6401 17.4155C40.6664 17.4155 39.0664 19.0155 39.0664 20.9892C39.0664 22.9629 40.6664 24.5629 42.6401 24.5629Z" stroke="#DF252A" stroke-width="2"/>
<path d="M30.4438 19.0192C32.4175 19.0192 34.0175 17.4192 34.0175 15.4455C34.0175 13.4718 32.4175 11.8718 30.4438 11.8718C28.4701 11.8718 26.8701 13.4718 26.8701 15.4455C26.8701 17.4192 28.4701 19.0192 30.4438 19.0192Z" stroke="#DF252A" stroke-width="2"/>
<path d="M18.2475 23.454C20.2212 23.454 21.8212 21.854 21.8212 19.8803C21.8212 17.9066 20.2212 16.3066 18.2475 16.3066C16.2738 16.3066 14.6738 17.9066 14.6738 19.8803C14.6738 21.854 16.2738 23.454 18.2475 23.454Z" stroke="#DF252A" stroke-width="2"/>
<path d="M13.5351 36.7592C15.5088 36.7592 17.1088 35.1592 17.1088 33.1855C17.1088 31.2118 15.5088 29.6118 13.5351 29.6118C11.5614 29.6118 9.96143 31.2118 9.96143 33.1855C9.96143 35.1592 11.5614 36.7592 13.5351 36.7592Z" stroke="#DF252A" stroke-width="2"/>
<path d="M42.4889 69.5C41.4889 71.1667 39.7889 75.2 40.9889 78" stroke="black" stroke-width="2" stroke-linecap="round"/>
<path d="M28.9888 62C28.1555 63.3333 25.2888 65.7 20.4888 64.5" stroke="black" stroke-width="2" stroke-linecap="round"/>
<path d="M29.4888 73C28.6555 74.3333 29.4888 73 27.4888 76" stroke="black" stroke-width="2" stroke-linecap="round"/>
</svg>
