<svg width="80" height="80" viewBox="0 0 80 80" fill="none" xmlns="http://www.w3.org/2000/svg">
<path fill-rule="evenodd" clip-rule="evenodd" d="M52.0003 3.38281C52.5526 3.38281 53.0003 3.83053 53.0003 4.38281V10.3828C53.0003 10.9351 52.5526 11.3828 52.0003 11.3828C51.448 11.3828 51.0003 10.9351 51.0003 10.3828V4.38281C51.0003 3.83053 51.448 3.38281 52.0003 3.38281ZM36.2074 9.17571C35.8169 8.78518 35.1837 8.78518 34.7932 9.17571C34.4027 9.56623 34.4027 10.1994 34.7932 10.5899L39.2932 15.0899C39.6837 15.4804 40.3169 15.4804 40.7074 15.0899C41.0979 14.6994 41.0979 14.0662 40.7074 13.6757L36.2074 9.17571ZM38.993 25.0019C39.6647 19.4046 45.4653 15.5043 51.2604 15.4452C54.1066 15.4162 56.8256 16.3294 58.8026 18.3414C60.7727 20.3464 62.1206 23.5599 62.0006 28.3578C61.918 31.6629 60.7699 35.0955 59.3607 37.795C58.6584 39.1404 57.9057 40.2757 57.2161 41.101C56.8711 41.5139 56.5534 41.8354 56.2775 42.0643C56.0746 42.2326 55.9191 42.3301 55.8128 42.3828H53.5003V30.1664C53.6085 30.1501 53.7169 30.1385 53.8232 30.1329C54.1742 30.1145 54.4185 30.1649 54.5594 30.2365C54.6555 30.2854 54.7304 30.3506 54.7722 30.5402C54.8255 30.7818 54.823 31.2524 54.5516 32.0665C54.377 32.5905 54.6601 33.1568 55.1841 33.3314C55.708 33.5061 56.2744 33.2229 56.449 32.699C56.7776 31.7131 56.8877 30.8462 56.7253 30.1097C56.5515 29.3212 56.0827 28.7676 55.4663 28.454C54.8946 28.1631 54.2577 28.1073 53.7181 28.1357C53.1668 28.1647 52.6274 28.2863 52.1841 28.4341C51.7757 28.5702 51.5003 28.9523 51.5003 29.3828V42.3828H49.5004V25.3829C49.5004 24.8893 49.1403 24.4696 48.6525 24.3945C48.0451 24.3011 47.3242 24.2589 46.6205 24.332C45.9334 24.4034 45.1601 24.5952 44.5412 25.0555C43.8678 25.5563 43.4547 26.3215 43.4837 27.3061C43.5106 28.2199 43.9142 29.2529 44.6568 30.4198C44.9533 30.8857 45.5714 31.0231 46.0373 30.7266C46.5033 30.4301 46.6406 29.812 46.3441 29.346C45.6866 28.3129 45.4944 27.6418 45.4828 27.2472C45.4733 26.9235 45.579 26.7762 45.7347 26.6603C45.9449 26.504 46.3112 26.3749 46.8272 26.3213C47.046 26.2986 47.2737 26.2913 47.5004 26.2965V42.3828H45.0003C44.9337 42.3828 44.8686 42.3893 44.8057 42.4017C42.0771 39.832 37.9522 33.6756 38.993 25.0019ZM48.5004 44.3829L48.4832 44.3828H46.0003V47.4714L55.5003 47.8107V44.3828H48.5176L48.5004 44.3829ZM44.0003 44.3618C40.8871 41.7422 35.8087 34.7517 37.0072 24.7636C37.8356 17.8609 44.785 13.5112 51.24 13.4453C54.5188 13.4119 57.7999 14.4673 60.2292 16.9397C62.6654 19.4191 64.1301 23.2056 64 28.4078C63.9076 32.1026 62.6391 35.8367 61.1337 38.7205C60.3787 40.1668 59.5496 41.4274 58.7509 42.3833C58.3518 42.861 57.9487 43.2765 57.5545 43.6036C57.5365 43.6185 57.5185 43.6333 57.5003 43.648V47.8821L57.536 47.8834C58.0741 47.9026 58.5003 48.3444 58.5003 48.8828V54.3828C58.5003 54.9351 58.0526 55.3828 57.5003 55.3828H56.7884C56.5155 56.3211 56.0281 57.4439 55.2673 58.4308C54.2501 59.7503 52.6912 60.8828 50.5003 60.8828C48.2961 60.8828 46.806 59.7357 45.8859 58.3826C45.2241 57.4094 44.8382 56.3106 44.6434 55.3828H43.5003C42.948 55.3828 42.5003 54.9351 42.5003 54.3828V48.3828C42.5003 48.1114 42.6106 47.8516 42.8059 47.6632C43.0013 47.4747 43.2648 47.3737 43.536 47.3834L44.0003 47.4V44.3618ZM46.6999 55.3828C46.8679 55.9971 47.1394 56.6692 47.5397 57.258C48.178 58.1965 49.1045 58.8828 50.5003 58.8828C51.9095 58.8828 52.9339 58.1819 53.6833 57.2097C54.1273 56.6338 54.4558 55.9829 54.6817 55.3828H46.6999ZM44.5003 49.4191V53.3828H56.5003V49.8477L44.5003 49.4191ZM39.2074 43.1757C39.5979 43.5662 39.5979 44.1994 39.2074 44.5899L36.2074 47.5899C35.8169 47.9804 35.1837 47.9804 34.7932 47.5899C34.4027 47.1994 34.4027 46.5662 34.7932 46.1757L37.7932 43.1757C38.1837 42.7851 38.8169 42.7851 39.2074 43.1757ZM33.5303 34.7308C33.9987 34.4381 34.141 33.8211 33.8483 33.3528C33.5556 32.8844 32.9387 32.7421 32.4703 33.0348L28.4703 35.5348C28.002 35.8275 27.8596 36.4444 28.1523 36.9128C28.445 37.3811 29.062 37.5235 29.5303 37.2308L33.5303 34.7308ZM28.0516 23.0665C28.2263 22.5426 28.7926 22.2594 29.3165 22.4341L33.8165 23.9341C34.3405 24.1087 34.6236 24.6751 34.449 25.199C34.2744 25.7229 33.708 26.0061 33.1841 25.8315L28.6841 24.3315C28.1601 24.1568 27.877 23.5905 28.0516 23.0665ZM66.7074 13.0899C67.0979 12.6994 67.0979 12.0662 66.7074 11.6757C66.3169 11.2851 65.6837 11.2851 65.2932 11.6757L61.7932 15.1757C61.4027 15.5662 61.4027 16.1994 61.7932 16.5899C62.1837 16.9804 62.8169 16.9804 63.2074 16.5899L66.7074 13.0899ZM65.5003 27.3828C65.5003 26.8305 65.948 26.3828 66.5003 26.3828H73.0003C73.5526 26.3828 74.0003 26.8305 74.0003 27.3828C74.0003 27.9351 73.5526 28.3828 73.0003 28.3828H66.5003C65.948 28.3828 65.5003 27.9351 65.5003 27.3828ZM65.486 35.5086C65.0032 35.2404 64.3944 35.4143 64.1262 35.8971C63.8579 36.3799 64.0319 36.9887 64.5147 37.2569L69.0147 39.7569C69.4975 40.0251 70.1063 39.8512 70.3745 39.3684C70.6427 38.8856 70.4687 38.2768 69.986 38.0086L65.486 35.5086ZM60.6841 43.4341C61.208 43.2594 61.7744 43.5426 61.949 44.0665L63.449 48.5665C63.6237 49.0905 63.3405 49.6568 62.8165 49.8315C62.2926 50.0061 61.7263 49.7229 61.5516 49.199L60.0516 44.699C59.877 44.1751 60.1601 43.6087 60.6841 43.4341Z" fill="#DF252A"/>
<path d="M50.3896 64.389C50.9385 64.328 51.4329 64.7235 51.4939 65.2724C51.6579 66.7484 50.94 68.6196 49.808 70.3135C48.646 72.0524 46.9266 73.7909 44.8087 75.0012C42.6827 76.216 40.1298 76.9109 37.3452 76.4971C34.5583 76.083 31.6471 74.5744 28.7774 71.5743C24.5623 67.1676 20.7132 66.2915 17.6759 66.7946C14.5662 67.3097 12.0968 69.305 10.7913 70.9945C10.4536 71.4315 9.82561 71.512 9.3886 71.1743C8.95159 70.8366 8.87107 70.2086 9.20876 69.7716C10.7366 67.7944 13.6171 65.4397 17.3491 64.8215C21.1535 64.1913 25.6378 65.3985 30.2227 70.1918C32.8529 72.9416 35.3792 74.183 37.6392 74.5189C39.9014 74.855 42.0048 74.2999 43.8164 73.2647C45.636 72.2249 47.1353 70.7134 48.1451 69.2023C49.185 67.6461 49.5921 66.2673 49.5061 65.4933C49.4451 64.9444 49.8407 64.45 50.3896 64.389Z" fill="#2B2A29"/>
</svg>
