<svg width="476" height="125" viewBox="0 0 476 125" fill="none" xmlns="http://www.w3.org/2000/svg">
<path fill-rule="evenodd" clip-rule="evenodd" d="M437 5.93037L475.559 0L469.517 38.0267C468.575 17.8267 453.31 6.41429 437 5.93037Z" fill="#E53538"/>
<path d="M42.35 97.03C39.3433 99.7433 34.6867 101.1 28.38 101.1C21.4867 101.1 15.84 98.35 11.44 92.85C7.11333 87.35 4.95 79.7967 4.95 70.19C4.95 60.6567 7.22333 53.1033 11.77 47.53C16.0967 42.25 21.67 39.61 28.49 39.61C34.43 39.61 39.0133 40.9667 42.24 43.68L39.38 51.27C37.2533 49.5833 34.6133 48.74 31.46 48.74C22.8067 48.74 18.48 55.8167 18.48 69.97C18.48 76.6433 19.58 81.8867 21.78 85.7C24.0533 89.5133 27.2067 91.42 31.24 91.42C34.4667 91.42 37.1433 90.54 39.27 88.78L42.35 97.03ZM95.7017 96.81C90.3484 99.67 83.1984 101.1 74.2517 101.1C58.1184 101.1 50.0517 95.0867 50.0517 83.06C50.0517 75.8733 53.3151 70.4833 59.8417 66.89C64.9751 64.1033 72.7484 62.1967 83.1617 61.17V57.98C83.1617 51.4533 79.2384 48.19 71.3917 48.19C66.4784 48.19 61.5284 49.4 56.5417 51.82L53.4617 44.12C59.6217 41.1133 66.4051 39.61 73.8117 39.61C88.4051 39.61 95.7017 46.43 95.7017 60.07V96.81ZM83.1617 91.97V67.55C76.1217 68.43 71.1351 69.7867 68.2017 71.62C64.5351 73.8933 62.7017 77.56 62.7017 82.62C62.7017 89.9533 66.8451 93.62 75.1317 93.62C78.2851 93.62 80.9617 93.07 83.1617 91.97ZM156.703 100H143.283V57.98C143.283 51.38 139.726 48.08 132.613 48.08C129.239 48.08 126.159 48.63 123.373 49.73V100H109.953V43.9C116.039 41.04 123.776 39.61 133.163 39.61C141.449 39.61 147.573 41.4433 151.533 45.11C154.979 48.19 156.703 52.4067 156.703 57.76V100ZM213.758 96.81C208.405 99.67 201.255 101.1 192.308 101.1C176.175 101.1 168.108 95.0867 168.108 83.06C168.108 75.8733 171.372 70.4833 177.898 66.89C183.032 64.1033 190.805 62.1967 201.218 61.17V57.98C201.218 51.4533 197.295 48.19 189.448 48.19C184.535 48.19 179.585 49.4 174.598 51.82L171.518 44.12C177.678 41.1133 184.462 39.61 191.868 39.61C206.462 39.61 213.758 46.43 213.758 60.07V96.81ZM201.218 91.97V67.55C194.178 68.43 189.192 69.7867 186.258 71.62C182.592 73.8933 180.758 77.56 180.758 82.62C180.758 89.9533 184.902 93.62 193.188 93.62C196.342 93.62 199.018 93.07 201.218 91.97ZM308.089 100H294.669V57.87C294.669 51.4167 291.333 48.19 284.659 48.19C280.773 48.19 277.473 49.5467 274.759 52.26V100H261.339V57.54C261.339 51.2333 257.636 48.08 250.229 48.08C247.003 48.08 244.069 48.63 241.429 49.73V100H228.009V43.9C233.949 41.04 241.356 39.61 250.229 39.61C258.589 39.61 264.749 41.7733 268.709 46.1C273.403 41.7733 279.746 39.61 287.739 39.61C294.339 39.61 299.509 41.48 303.249 45.22C306.476 48.52 308.089 52.7 308.089 57.76V100Z" fill="#ED1C24"/>
<path d="M368.193 96.48C362.253 99.6333 354.663 101.21 345.423 101.21C330.097 101.21 322.433 94.5367 322.433 81.19V40.71H335.853V81.96C335.853 88.6333 339.19 91.97 345.863 91.97C349.53 91.97 352.5 91.31 354.773 89.99V40.71H368.193V96.48ZM429.232 100H415.812V57.98C415.812 51.38 412.255 48.08 405.142 48.08C401.769 48.08 398.689 48.63 395.902 49.73V100H382.482V43.9C388.569 41.04 396.305 39.61 405.692 39.61C413.979 39.61 420.102 41.4433 424.062 45.11C427.509 48.19 429.232 52.4067 429.232 57.76V100ZM458.018 23.88C458.018 25.7133 457.284 27.29 455.818 28.61C454.424 29.8567 452.701 30.48 450.648 30.48C448.594 30.48 446.834 29.8567 445.368 28.61C443.974 27.29 443.278 25.7133 443.278 23.88C443.278 22.0467 443.974 20.47 445.368 19.15C446.834 17.83 448.594 17.17 450.648 17.17C452.701 17.17 454.424 17.83 455.818 19.15C457.284 20.3967 458.018 21.9733 458.018 23.88ZM457.358 100H443.938V40.71H457.358V100Z" fill="black"/>
</svg>
