<svg width="80" height="80" viewBox="0 0 80 80" fill="none" xmlns="http://www.w3.org/2000/svg">
<path d="M56.7102 19.3206C53.6332 19.586 47.8224 21.0189 49.1948 24.6271C50.9104 29.1373 55.0074 28.0049 54.4167 25.7813C53.826 23.5576 45.7826 23.9555 46.9327 29.7452" stroke="#1E1E48" stroke-width="2" stroke-linecap="round"/>
<path d="M4.2392 64.3487C4.1176 65.3215 4.00042 67.3534 4.50451 67.6983C5.13462 68.1294 10.474 70.683 16.344 71.1473C22.214 71.6116 27.4871 70.4509 30.5382 68.6932C32.979 67.287 32.9702 64.8351 32.6606 63.7849" stroke="black" stroke-width="2" stroke-linecap="round"/>
<path d="M4.93586 58.7771C4.70371 58.9097 2.97919 59.1419 2.8797 61.0322C2.78021 62.9225 3.87461 64.6139 6.89253 65.7083C9.91044 66.8027 18.0024 68.2951 23.1097 67.5987C28.2169 66.9022 33.0588 64.5476 33.3905 62.2261C33.7221 59.9046 32.3624 58.4786 31.5001 58.5449" stroke="black" stroke-width="2" stroke-linecap="round"/>
<path d="M75.8067 60.4685C76.2046 60.5349 77.6804 60.9992 77.4815 62.591C77.3223 63.8645 75.3369 63.5583 74.563 63.2046" stroke="#DF252A" stroke-width="2" stroke-linecap="round"/>
<path d="M23.097 24.1158C22.6991 23.6515 21.3062 21.0647 23.097 20.4678C24.8879 19.8708 32.1176 21.3964 35.1023 23.7179C38.0871 26.0393 39.2147 28.7588 38.8167 29.621C38.4983 30.3108 37.6228 30.8813 37.2248 31.0802" stroke="#DF252A" stroke-width="2" stroke-linecap="round"/>
<path d="M22.2984 27.625C21.9004 27.0502 21.3433 25.0592 22.2984 24.7408C23.4923 24.3429 29.6608 25.4704 32.2476 27.2613C34.8343 29.0521 37.1558 30.7767 37.0895 31.9042C37.0364 32.8063 35.8133 33.5 35.4374 33.5" stroke="#DF252A" stroke-width="2" stroke-linecap="round"/>
<path d="M12.7953 41.0344C12.1984 41.0344 10.978 41.3793 10.8718 42.7589C10.7392 44.4834 11.9994 45.4784 14.5199 47.2692C17.0403 49.0601 22.8772 52.0448 25.265 51.8458C27.1752 51.6866 27.6085 50.0992 27.5864 49.3254" stroke="#DF252A" stroke-width="2" stroke-linecap="round"/>
<path d="M15.25 38.4375C14.7194 38.2828 13.0343 38.8855 12.6629 39.8406C12.2914 40.7957 13.4367 41.9189 14.0557 42.3611C16.6646 43.8645 22.1477 47.0306 23.209 47.6673C24.5355 48.4632 27.5866 49.5245 28.2499 49.1928C28.7805 48.9275 28.9711 46.898 28.75 46.5" stroke="#DF252A" stroke-width="2" stroke-linecap="round"/>
<path d="M22.0152 27.1721C19.4947 30.8644 15.4803 37.4611 15.5865 38.3101C15.7191 39.3713 18.1732 41.5602 22.1529 43.2847C26.1326 45.0092 28.852 46.4021 29.25 46.3358C29.5683 46.2827 30.1071 44.7048 30.8367 43.4224" stroke="#DF252A" stroke-width="2" stroke-linecap="round"/>
<path d="M34.301 37.3317C34.5 37.0001 35.4132 35.5345 35.5459 34.4069C35.6786 33.2793 30.505 29.6976 26.857 28.769C23.2089 27.8405 22.2959 27.8521 21.5 28.2501" stroke="#DF252A" stroke-width="2" stroke-linecap="round"/>
<path d="M35.1478 38.1824C33.8743 36.962 32.7158 37.3202 32.2957 37.6518C31.4998 38.5804 29.9079 40.5702 30.4386 42.6264C30.863 44.2713 34.0202 44.4172 35.5458 44.2846C35.0815 42.2947 35.4795 41.6978 36.607 41.0345C37.7346 40.3712 36.7397 39.708 35.1478 38.1824Z" stroke="#DF252A" stroke-width="2" stroke-linecap="round"/>
<path d="M58.2965 51.249C50.6025 48.1316 38.0002 40.9682 37.0716 40.6365C35.4797 41.4988 35.2144 41.7641 35.2144 43.2233C35.2144 44.6825 36.74 44.6825 39.9237 46.805C43.1074 48.9275 67.2507 61.0655 69.9038 62.392C72.0263 63.4533 73.8393 63.4091 74.4805 63.2543C74.989 62.3257 75.9662 60.2961 75.807 59.6063C75.608 58.744 65.9905 54.3664 58.2965 51.249Z" stroke="#DF252A" stroke-width="2" stroke-linecap="round"/>
<path d="M29.3243 56.182C29.652 56.3789 29.7733 56.5174 29.8166 56.5802C29.7733 56.643 29.652 56.7814 29.3243 56.9784C28.8017 57.2924 27.9788 57.6106 26.8738 57.8914C24.6792 58.4492 21.5938 58.8052 18.1481 58.8052C14.7024 58.8052 11.6169 58.4492 9.42229 57.8914C8.31737 57.6106 7.49446 57.2924 6.97178 56.9784C6.64409 56.7814 6.5228 56.643 6.47949 56.5802C6.5228 56.5174 6.64409 56.379 6.97178 56.182C7.49446 55.868 8.31737 55.5498 9.42229 55.269C11.6169 54.7112 14.7024 54.3552 18.1481 54.3552C21.5938 54.3552 24.6792 54.7112 26.8738 55.269C27.9788 55.5498 28.8017 55.868 29.3243 56.182Z" stroke="black" stroke-width="2"/>
</svg>
