<svg width="80" height="80" viewBox="0 0 80 80" fill="none" xmlns="http://www.w3.org/2000/svg">
<path fill-rule="evenodd" clip-rule="evenodd" d="M33.8387 8.04511C34.1397 7.58205 34.0083 6.96267 33.5453 6.66168C33.0822 6.36069 32.4628 6.49207 32.1619 6.95513C31.044 8.67494 29.6622 11.3847 29.251 13.888C29.0453 15.1403 29.0623 16.4601 29.5977 17.593C30.1128 18.6829 31.0483 19.4757 32.4015 19.8763C32.3322 20.6753 32.4142 21.4991 32.7108 22.3003C33.2743 23.8226 34.55 25.0971 36.6288 25.9286C37.1416 26.1337 37.7236 25.8843 37.9287 25.3715C38.1338 24.8587 37.8844 24.2767 37.3716 24.0716C35.7004 23.4031 34.9136 22.4901 34.5865 21.6061C34.4269 21.175 34.3625 20.7125 34.382 20.2356C37.0576 20.478 39.0448 19.6408 40.0976 18.3072C40.715 17.5252 41.008 16.5513 40.7958 15.615C40.5765 14.6476 39.857 13.8983 38.8164 13.5514C37.5712 13.1363 36.2683 13.7479 35.3157 14.5202C34.3122 15.3339 33.4133 16.5385 32.8825 17.8829L32.8655 17.9266C32.06 17.6648 31.6384 17.2303 31.406 16.7385C31.1153 16.1234 31.0511 15.2682 31.2246 14.2122C31.5717 12.0988 32.7899 9.65864 33.8387 8.04511ZM38.5279 17.068C38.0326 17.6953 36.8701 18.3729 34.8928 18.2695C35.3085 17.3812 35.9277 16.5988 36.5753 16.0737C37.3571 15.4398 37.9292 15.3639 38.184 15.4488C38.6434 15.6019 38.7989 15.8526 38.8453 16.0571C38.8987 16.2927 38.848 16.6625 38.5279 17.068ZM76.864 28.4962C77.1423 28.9733 76.9811 29.5856 76.5041 29.8639L70.5041 33.3639C70.027 33.6422 69.4147 33.481 69.1364 33.004C68.8581 32.5269 69.0193 31.9146 69.4963 31.6363L75.4963 28.1363C75.9734 27.858 76.5857 28.0192 76.864 28.4962ZM64.8807 20.9742C65.1425 20.4879 64.9606 19.8815 64.4743 19.6196C63.988 19.3578 63.3816 19.5397 63.1197 20.026L59.6197 26.526C59.3579 27.0123 59.5398 27.6187 60.0261 27.8806C60.5124 28.1424 61.1188 27.9605 61.3807 27.4742L64.8807 20.9742ZM13.8621 60.9931C14.1422 61.4691 13.9833 62.082 13.5072 62.362L5.00718 67.362C4.53115 67.6421 3.91824 67.4832 3.63822 67.0071C3.35821 66.5311 3.51711 65.9182 3.99314 65.6382L12.4932 60.6382C12.9692 60.3582 13.5821 60.517 13.8621 60.9931Z" fill="#1E1E48"/>
<path fill-rule="evenodd" clip-rule="evenodd" d="M16.7139 30.7369L16.7145 30.736C16.7348 30.7058 16.8963 30.465 17.6421 30.3223C18.5793 30.143 20.24 30.185 22.967 30.9641C26.4678 31.9644 31.3645 33.3457 36.2668 34.4771C41.1471 35.6033 46.1185 36.5027 49.7417 36.5027C53.267 36.5027 55.5454 36.7783 57.1764 38.0936C58.7997 39.4027 60.0081 41.9389 60.7518 47.1441L60.9523 48.547L60.9527 48.5497C61.1451 49.8952 61.338 51.2438 61.5257 52.5681C61.3597 52.3069 61.1851 52.0668 61.0009 51.852C59.6371 50.2608 57.8591 49.3851 56.2382 48.9278C54.6228 48.4721 53.0967 48.4122 52.1422 48.5077C51.5926 48.5627 51.1917 49.0527 51.2466 49.6022C51.3016 50.1518 51.7916 50.5527 52.3412 50.4978C53.0533 50.4266 54.3273 50.4668 55.6952 50.8527C57.0576 51.237 58.4463 51.9447 59.4824 53.1535C60.0872 53.8591 60.6647 55.1538 61.1734 56.8725C61.672 58.5572 62.0702 60.5261 62.379 62.472C62.9955 66.3556 63.2394 70.0348 63.2417 70.9893C63.2416 70.9965 63.2416 71.0036 63.2416 71.0107C63.2368 71.2928 62.9801 71.7363 62.2902 72.223C61.6365 72.6842 60.8999 72.9625 60.5773 73.0162L60.5426 73.022L60.5083 73.0302C56.5631 73.9771 44.5458 74.6054 29.117 69.0749C24.4701 66.9658 20.6131 61.6339 17.7005 55.7467C14.8046 49.8933 12.9546 43.7235 12.2195 40.2931C12.0284 39.4015 11.8298 38.5914 11.6508 37.8687L11.6088 37.6991C11.4458 37.0415 11.3042 36.4699 11.1967 35.9603C11.0796 35.405 11.0136 34.9698 11.0019 34.6241C10.9901 34.2765 11.0366 34.0911 11.0829 33.9932C11.1242 33.906 11.2747 33.6334 12.3681 33.5547C13.4421 33.4775 15.0946 33.6168 17.5933 33.9916C22.6376 34.7482 25.7789 35.2358 27.7379 35.8889C28.7027 36.2105 29.2771 36.5412 29.6316 36.8849C29.9609 37.2041 30.1592 37.5908 30.2553 38.1672L30.2883 38.3662C30.3953 39.011 30.4928 39.5992 30.6289 40.0954C30.7851 40.6654 31.0134 41.2023 31.4359 41.6718C31.8537 42.136 32.393 42.4582 33.0413 42.7246C33.6825 42.9882 34.4916 43.2211 35.4992 43.473C38.7604 44.2883 50.9593 46.1632 56.5962 46.9922C57.1426 47.0725 57.6507 46.6947 57.7311 46.1483C57.8114 45.6019 57.4336 45.0938 56.8872 45.0135C51.1908 44.1758 39.123 42.3174 35.9842 41.5327C34.9918 41.2846 34.3009 41.08 33.8015 40.8748C33.3092 40.6724 33.0672 40.4946 32.9225 40.3339C32.7825 40.1783 32.667 39.9653 32.5577 39.5665C32.4505 39.1756 32.3702 38.6928 32.256 38.0061L32.2281 37.8384C32.0742 36.9148 31.71 36.1141 31.0236 35.4488C30.3626 34.8081 29.4681 34.3575 28.3704 33.9916C26.2045 33.2695 22.8458 32.7571 17.89 32.0137C15.3887 31.6385 13.5413 31.4652 12.2247 31.5599C10.9274 31.6532 9.79661 32.0367 9.27546 33.137C9.04057 33.6329 8.98548 34.1741 9.00301 34.6917C9.0206 35.2113 9.1147 35.7799 9.23978 36.373C9.3549 36.9189 9.50512 37.5249 9.66549 38.1719L9.70949 38.3495C9.88791 39.0701 10.08 39.8538 10.2639 40.7122C11.0288 44.2818 12.9288 50.612 15.9079 56.6336C18.8629 62.6066 22.9939 68.5127 28.3313 70.9146L28.367 70.9306L28.4038 70.9438C44.1197 76.5854 56.5312 76.0301 60.9437 74.9825C61.6206 74.8606 62.6124 74.4434 63.4432 73.8572C64.2324 73.3004 65.2065 72.3552 65.2408 71.0724C65.5813 68.3331 66.4433 60.3181 67.239 49.5766C67.7403 42.8081 67.388 38.2205 66.0973 35.2313C65.4388 33.7064 64.5264 32.573 63.3481 31.7936C62.1784 31.02 60.8173 30.6418 59.3322 30.5068C53.8525 30.0086 34.905 27.5138 26.4706 25.5292C23.0228 24.718 20.7822 24.8753 19.4519 25.7564C18.4369 26.4287 18.1106 27.3897 18.1166 28.2525C17.8092 28.2723 17.5263 28.3082 17.2663 28.3579C15.9261 28.6144 14.9596 29.3139 14.7611 30.3065C14.6528 30.8481 15.004 31.3749 15.5456 31.4832C16.0743 31.589 16.589 31.2567 16.7139 30.7369ZM20.1145 28.3243C21.0839 28.4387 22.2106 28.668 23.5164 29.0411C27.0156 30.0409 31.8689 31.4096 36.7166 32.5283C41.5863 33.6521 46.3649 34.5027 49.7417 34.5027C53.2164 34.5027 56.188 34.7272 58.432 36.5368C60.6837 38.3527 61.9753 41.5665 62.7316 46.8613L62.932 48.2629C63.4683 52.0128 64.0101 55.8009 64.4332 59.0225C64.4387 59.0648 64.4443 59.107 64.4498 59.1491C64.7074 56.2767 64.9795 53.005 65.2444 49.4288C65.7431 42.6973 65.3453 38.5349 64.2611 36.0241C63.7321 34.799 63.0507 33.9949 62.2447 33.4618C61.43 32.9229 60.4161 32.6136 59.1512 32.4986C53.6309 31.9968 34.5782 29.4915 26.0125 27.476C22.6603 26.6873 21.151 27.03 20.5563 27.4238C20.2151 27.6498 20.0879 27.971 20.1145 28.3243ZM25.1478 60.9164C26.3896 60.3645 30.5099 59.5255 35.8772 61.4343C37.1077 61.9575 40.1607 63.0027 42.7417 63.0027C43.294 63.0027 43.7417 62.555 43.7417 62.0027C43.7417 61.4504 43.294 61.0027 42.7417 61.0027C40.5435 61.0027 37.7584 60.0647 36.6356 59.5835L36.6072 59.5713L36.578 59.5609C30.7591 57.4827 26.0917 58.3083 24.3356 59.0888C23.8309 59.3131 23.6036 59.9041 23.8279 60.4088C24.0522 60.9134 24.6432 61.1407 25.1478 60.9164ZM30.5125 63.7524C28.6131 63.792 26.9627 64.1497 26.0579 64.4513C25.534 64.6259 24.9677 64.3428 24.793 63.8188C24.6184 63.2949 24.9015 62.7286 25.4255 62.5539C26.5207 62.1889 28.3703 61.7966 30.4709 61.7528C32.5706 61.7091 34.9966 62.012 37.1889 63.1082C37.6829 63.3552 37.8831 63.9559 37.6361 64.4498C37.3891 64.9438 36.7885 65.144 36.2945 64.897C34.4868 63.9932 32.4128 63.7128 30.5125 63.7524Z" fill="#DF252A"/>
</svg>
