<svg width="80" height="80" viewBox="0 0 80 80" fill="none" xmlns="http://www.w3.org/2000/svg">
<path d="M40.0312 42.0227V47.9485" stroke="#DF252A" stroke-width="2" stroke-linecap="round"/>
<path d="M40.0312 20.7322V36.8419" stroke="#DF252A" stroke-width="2" stroke-linecap="round"/>
<path d="M36.163 41.0647C35.1458 41.6206 33.2888 43.3356 33.9985 45.7485C34.7081 48.1614 36.163 49.0722 36.8017 49.226" stroke="#DF252A" stroke-width="2" stroke-linecap="round"/>
<path d="M37.9015 61.3257C37.0735 61.4085 35.4744 62.2767 35.7015 65.087" stroke="#DF252A" stroke-width="2" stroke-linecap="round"/>
<path d="M42.6211 52.5967C44.348 53.4602 46.9359 56.0671 43.4727 59.5871" stroke="#DF252A" stroke-width="2" stroke-linecap="round"/>
<path d="M39.96 53.4485V57.8485" stroke="#DF252A" stroke-width="2" stroke-linecap="round"/>
<path d="M39.96 63.1001V67.5001" stroke="#DF252A" stroke-width="2" stroke-linecap="round"/>
<path d="M44.2177 30.0291C46.536 29.6861 51.0377 29.7452 50.4984 32.7259C49.959 35.7065 45.7317 37.942 43.6855 38.6872" stroke="#DF252A" stroke-width="2" stroke-linecap="round"/>
<path d="M36.3404 29.9936C35.8436 29.8516 29.5275 28.8581 29.3146 32.9032C29.1017 36.9484 37.334 38.7581 39.6404 39.4678C41.9469 40.1774 46.7017 41.7742 46.2404 45.1452C45.7791 48.5161 40.5275 50.4677 37.5469 52.5258C34.5662 54.5839 33.9275 57.7065 36.6953 59.3032C39.463 60.9 42.4791 59.7645 44.6082 64.7677" stroke="#DF252A" stroke-width="2" stroke-linecap="round"/>
<path d="M40.0664 26.658C40.4212 26.658 44.3599 25.9838 45.6374 22.3999C46.9148 18.816 50.3567 15.9064 54.1535 18.0709C57.9503 20.2354 62.6341 22.5064 66.1825 23.7128C69.0212 24.678 70.1567 24.9429 70.3696 24.9548C70.0858 25.9956 68.787 28.1696 65.8632 28.5386C62.9393 28.9077 61.8062 28.3612 61.6051 28.0419C61.3331 28.9289 60.1787 30.7812 57.7374 31.0935C54.6858 31.4838 53.7277 29.6741 52.8406 28.2548C52.1309 27.1193 50.818 26.7171 50.2503 26.658" stroke="#DF252A" stroke-width="2" stroke-linecap="round"/>
<path d="M40.0661 26.658C39.7113 26.658 35.6396 25.9838 34.3622 22.3999C33.0848 18.816 29.6428 15.9064 25.846 18.0709C22.0493 20.2354 17.3654 22.5064 13.817 23.7128C10.9783 24.678 9.84278 24.9429 9.62988 24.9548C9.91375 25.9956 11.2125 28.1696 14.1364 28.5386C17.0602 28.9077 18.1934 28.3612 18.3944 28.0419C18.6665 28.9289 19.8209 30.7812 22.2622 31.0935C25.3138 31.4838 26.2718 29.6741 27.1589 28.2548C27.8686 27.1193 29.1815 26.7171 29.7493 26.658" stroke="#DF252A" stroke-width="2" stroke-linecap="round"/>
<path d="M43.1825 16.6693C43.1825 18.4197 41.7635 19.8387 40.0131 19.8387C38.2627 19.8387 36.8438 18.4197 36.8438 16.6693C36.8438 14.919 38.2627 13.5 40.0131 13.5C41.7635 13.5 43.1825 14.919 43.1825 16.6693Z" stroke="#DF252A" stroke-width="2"/>
<path d="M21.2211 43.5767C17.316 46.6529 10.7644 53.7158 15.7995 57.3573C22.0932 61.9091 26.6045 56.765 23.8448 54.2955C21.085 51.8259 10.6152 59.469 17.2789 66.2421" stroke="black" stroke-width="2" stroke-linecap="round"/>
</svg>
