<svg width="80" height="80" viewBox="0 0 80 80" fill="none" xmlns="http://www.w3.org/2000/svg">
<path fill-rule="evenodd" clip-rule="evenodd" d="M30.2075 23.2792C30.4035 23.0907 30.6679 22.9901 30.9397 23.0008L55.0904 23.9452C55.627 23.9662 56.0513 24.4074 56.0513 24.9445V29.6111C56.0513 30.1482 55.627 30.5894 55.0904 30.6104L52.5749 30.7087L51.9107 30.7347C51.9398 32.2235 51.9936 34.1627 52.0764 36.0021C52.1807 38.3172 52.3272 40.362 52.5076 41.2083L52.5079 41.2098L52.5091 41.2145C52.5103 41.2187 52.512 41.2246 52.5144 41.2324C52.5168 41.2398 52.5197 41.2484 52.5232 41.2584L52.5318 41.2815L52.5377 41.2967C52.5598 41.352 52.5923 41.4234 52.6381 41.5121C52.7304 41.6906 52.8636 41.9136 53.0409 42.181C53.3954 42.7154 53.8961 43.3811 54.5219 44.1499C55.7718 45.685 57.4804 47.581 59.4165 49.574C63.2978 53.5694 68.0246 57.8836 71.7189 60.4263C73.7708 61.8386 74.8169 63.4642 74.9778 65.2012C75.1352 66.9001 74.4218 68.472 73.4629 69.7576C72.4979 71.0514 71.2112 72.1575 70.0149 72.9684C68.8473 73.7598 67.641 74.3543 66.8082 74.5106C66.4639 74.5752 65.65 74.6185 64.5874 74.6559C63.4793 74.695 61.9945 74.7298 60.2262 74.7608C56.6884 74.8229 51.9987 74.8701 46.8823 74.9055C36.6487 74.9764 24.6967 75 16.8128 75C14.0717 75 11.6593 73.0367 10.2983 70.8013C8.95427 68.5937 8.35104 65.6173 9.9794 63.4777C10.6616 62.5813 11.9736 61.2329 13.5883 59.6806C15.2198 58.1122 17.2107 56.2883 19.2901 54.4253C23.4499 50.6986 27.9853 46.7967 30.7547 44.4337C32.694 42.7791 33.6013 40.2171 33.8939 37.5377C34.141 35.2752 33.9358 33.0401 33.6267 31.4497L30.9397 31.5548C30.6679 31.5654 30.4035 31.4649 30.2075 31.2764C30.0114 31.0878 29.9006 30.8276 29.9006 30.5556V24C29.9006 23.728 30.0114 23.4678 30.2075 23.2792ZM31.9006 25.0399V29.5157L34.3835 29.4186C34.8566 29.4001 35.2778 29.7158 35.3927 30.1751C35.8361 31.9471 36.2029 34.8167 35.8821 37.7548C35.5625 40.6814 34.5412 43.832 32.0529 45.9552C29.5108 48.1241 25.4845 51.5867 21.6331 55.0145C21.7557 55.2561 21.7804 55.5464 21.6774 55.8199C21.6216 55.968 21.5483 56.1375 21.4809 56.2934L21.4503 56.3642C21.3699 56.5506 21.2909 56.7374 21.2201 56.9288C21.0731 57.3262 20.9936 57.6621 20.9998 57.9264C21.0051 58.1487 21.0658 58.2864 21.2142 58.4108C21.4037 58.5694 21.8373 58.7859 22.7698 58.8744C25.2672 59.1112 33.2496 58.9939 41.1704 58.6872C45.1123 58.5346 49.0095 58.3364 52.1587 58.1157C55.3534 57.8918 57.6692 57.6508 58.5306 57.433C59.7987 57.1122 60.3619 56.4871 60.6491 55.8977C60.9627 55.2541 60.9995 54.5445 60.9995 54C60.9995 53.9905 60.9996 53.981 60.9999 53.9715C59.9575 52.968 58.9422 51.9561 57.982 50.9676C56.0188 48.9468 54.2683 47.006 52.971 45.4126C52.3233 44.6171 51.7784 43.8958 51.3742 43.2865C50.9975 42.7185 50.6583 42.1264 50.5515 41.6251C50.3293 40.5824 50.1802 38.3527 50.0784 36.0921C49.9749 33.7915 49.9164 31.3425 49.8943 29.7879C49.8866 29.2454 50.3129 28.7957 50.8551 28.7745L52.4967 28.7103L54.0513 28.6495V25.9061L31.9006 25.0399ZM14.9744 61.1224C16.1667 59.9762 17.5592 58.6864 19.0442 57.3394C19.0125 57.545 18.9953 57.7579 19.0004 57.9735C19.0166 58.6602 19.2621 59.3846 19.9301 59.9441C20.5572 60.4693 21.4505 60.7582 22.5809 60.8654C25.2407 61.1177 33.3746 60.9905 41.2477 60.6857C45.2028 60.5326 49.122 60.3334 52.2985 60.1108C55.4294 59.8914 57.9484 59.6432 59.021 59.3719C60.8473 58.91 61.8959 57.9046 62.447 56.7738C62.6242 56.41 62.7448 56.0436 62.8267 55.6947C65.4899 58.1548 68.2218 60.4472 70.5849 62.0738C72.3065 63.2587 72.8957 64.4073 72.9863 65.3857C73.0805 66.402 72.6618 67.4864 71.8597 68.5619C71.0637 69.6291 69.9606 70.5891 68.8927 71.3129C67.7962 72.0562 66.8641 72.4652 66.4392 72.545C66.2803 72.5748 65.6529 72.6171 64.5169 72.6572C63.4264 72.6956 61.9552 72.7301 60.1911 72.7611C56.664 72.823 51.9826 72.8702 46.8685 72.9056C36.6411 72.9764 24.694 73 16.8128 73C15.0256 73 13.1613 71.6578 12.0066 69.7612C10.835 67.8369 10.6836 65.8549 11.5709 64.689C12.1465 63.9326 13.3502 62.6838 14.9744 61.1224ZM38.9371 28.502C38.3859 28.5364 37.967 29.0112 38.0014 29.5624C38.0359 30.1136 38.5107 30.5325 39.0619 30.4981L47.0619 29.9981C47.6131 29.9636 48.032 29.4888 47.9976 28.9376C47.9631 28.3864 47.4883 27.9675 46.9371 28.002L38.9371 28.502ZM39.8135 48.4188C39.5617 48.0664 39.2219 47.6814 38.8189 47.357C38.4231 47.0384 37.9073 46.731 37.3079 46.6272C36.6682 46.5164 35.9943 46.6509 35.3955 47.1219C34.8313 47.5657 34.3981 48.2564 34.0634 49.1489C33.6366 50.287 33.5552 51.2994 33.815 52.1691C34.0784 53.0509 34.6549 53.6593 35.2977 54.045C35.9267 54.4224 36.6307 54.5969 37.2409 54.6453C37.8187 54.6912 38.4654 54.6352 38.9469 54.3944C39.4382 54.1488 39.7552 53.6748 39.9495 53.288C40.1632 52.8627 40.3217 52.3558 40.4107 51.8291C40.5833 50.8072 40.5273 49.4889 39.8318 48.4454C39.8258 48.4365 39.8197 48.4276 39.8135 48.4188ZM35.9361 49.8512C36.2014 49.1437 36.464 48.8261 36.6321 48.6938C36.7655 48.5888 36.8604 48.5795 36.9666 48.5979C37.113 48.6232 37.3201 48.718 37.5649 48.915C37.7977 49.1024 38.0122 49.3405 38.1759 49.5672C38.4736 50.0245 38.5647 50.7497 38.4386 51.4959C38.3776 51.8568 38.2737 52.1686 38.1624 52.3902C38.095 52.5243 38.0436 52.5895 38.0221 52.615C37.9935 52.6231 37.9443 52.6346 37.8714 52.6442C37.7447 52.6607 37.5825 52.6661 37.3991 52.6516C37.025 52.6219 36.6353 52.5152 36.3267 52.33C36.032 52.1532 35.8273 51.9179 35.7313 51.5966C35.6317 51.2632 35.6128 50.7131 35.9361 49.8512ZM43.8574 52.3754C43.9891 51.9492 44.1886 51.5566 44.3895 51.2451C44.3953 51.236 44.4013 51.227 44.4075 51.2181C45.0321 50.315 46.0763 49.8575 46.9366 49.6771C47.3823 49.5837 47.8372 49.5511 48.2484 49.5894C48.6173 49.6238 49.1227 49.7305 49.5013 50.0724C49.8642 50.4001 50.1151 50.9147 50.2595 51.3875C50.4133 51.8913 50.4977 52.5134 50.3942 53.1434C50.2882 53.7892 49.9789 54.4602 49.3414 54.9621C48.7137 55.4563 47.8703 55.7059 46.8418 55.7206C46.0379 55.7321 45.3409 55.6042 44.7918 55.2809C44.2055 54.9356 43.8709 54.4153 43.7526 53.8451C43.6424 53.3141 43.7284 52.7929 43.8574 52.3754ZM45.8066 53.5574C45.9213 53.625 46.2085 53.7294 46.8132 53.7208C47.5454 53.7103 47.9188 53.5366 48.1042 53.3906C48.2799 53.2524 48.3801 53.0663 48.4207 52.8194C48.4638 52.5567 48.4318 52.2504 48.3466 51.9715C48.2876 51.7781 48.2223 51.6576 48.1863 51.5988C48.1584 51.5928 48.1181 51.586 48.0629 51.5808C47.8795 51.5637 47.6272 51.5758 47.347 51.6346C46.763 51.757 46.2861 52.0284 46.0608 52.3438C45.9446 52.5268 45.8354 52.7484 45.7682 52.9659C45.6965 53.198 45.6937 53.3557 45.7109 53.4388C45.72 53.4827 45.729 53.5118 45.8066 53.5574ZM48.1064 41.2968C47.9651 40.7421 47.7367 40.1091 47.4116 39.5355C47.0948 38.9765 46.6331 38.3801 45.9814 38.0292C45.2679 37.6451 44.4357 37.6161 43.5969 38.0353C42.8173 38.4249 42.0715 39.1782 41.3322 40.2711C40.3899 41.6642 39.9324 42.9391 39.8808 44.0917C39.8284 45.2604 40.1975 46.2293 40.7737 46.9725C41.3387 47.7012 42.085 48.1929 42.7894 48.4779C43.4596 48.7491 44.2389 48.8906 44.8779 48.7291C45.4852 48.5755 45.9901 48.0883 46.3477 47.6539C46.7424 47.1744 47.1157 46.563 47.4226 45.8954C48.0228 44.5896 48.4577 42.8702 48.1133 41.3259C48.1112 41.3162 48.1088 41.3064 48.1064 41.2968ZM42.9888 41.3917C43.6429 40.4247 44.1538 39.9928 44.4909 39.8243C44.7687 39.6855 44.9132 39.7256 45.0333 39.7903C45.2153 39.8882 45.4441 40.1202 45.6716 40.5217C45.8883 40.9039 46.0566 41.3572 46.1644 41.7753C46.3689 42.7162 46.1129 43.956 45.6054 45.06C45.3571 45.6001 45.0704 46.0586 44.8036 46.3827C44.5772 46.6578 44.4317 46.7556 44.3912 46.7828C44.3823 46.7887 44.3801 46.7916 44.3801 46.7916L44.3682 46.7933C44.3643 46.7938 44.3599 46.7943 44.3551 46.7947C44.3434 46.7958 44.3289 46.7967 44.3116 46.7971C44.2621 46.7983 44.1966 46.7952 44.1161 46.7842C43.9538 46.762 43.7549 46.7111 43.5397 46.624C43.1047 46.4479 42.6675 46.151 42.3543 45.7471C42.0524 45.3576 41.8488 44.8499 41.8788 44.1813C41.9095 43.4967 42.1893 42.5737 42.9888 41.3917Z" fill="#DF252A"/>
<path d="M41.928 6.50437C42.2066 6.02751 42.0459 5.41508 41.569 5.13648C41.0921 4.85788 40.4797 5.0186 40.2011 5.49547C39.3904 6.88315 38.3878 9.06948 38.0889 11.0939C37.9397 12.1041 37.9487 13.1842 38.3476 14.1234C38.7144 14.9869 39.3787 15.6526 40.3449 16.0197C40.311 16.6327 40.3771 17.2625 40.5819 17.8781C41.0015 19.1394 41.9618 20.2138 43.5341 20.9135C44.0387 21.1381 44.6298 20.9111 44.8543 20.4065C45.0789 19.9019 44.8519 19.3108 44.3473 19.0863C43.2232 18.586 42.7004 17.9105 42.4796 17.2467C42.3918 16.9828 42.3457 16.7019 42.3378 16.4109C44.2121 16.515 45.6417 15.8243 46.4191 14.7286C46.8906 14.0641 47.1076 13.2493 46.9486 12.469C46.7834 11.6582 46.2272 10.9813 45.367 10.6623C44.2776 10.2583 43.205 10.8703 42.5125 11.4949C41.8118 12.127 41.1914 13.0277 40.795 14.0291C40.486 13.8532 40.3048 13.6155 40.1884 13.3414C39.9934 12.8823 39.9439 12.2224 40.0674 11.386C40.3138 9.71703 41.1808 7.78336 41.928 6.50437Z" fill="#2B2A29"/>
<path d="M44.8152 11.7363C43.9918 11.6458 42.9219 13.7079 42.4994 14.4999L45.152 13.7095C46.5 12.5 45.3123 11.7909 44.8152 11.7363Z" fill="white"/>
</svg>
